<svg xmlns="http://www.w3.org/2000/svg" width="1200" height="630" viewBox="0 0 1200 630">
  <rect width="1200" height="630" fill="#18181b"/>
  <g stroke="#ffffff" stroke-opacity="0.06" stroke-width="1">
    <line x1="0" y1="42" x2="1200" y2="42"/><line x1="0" y1="84" x2="1200" y2="84"/><line x1="0" y1="126" x2="1200" y2="126"/><line x1="0" y1="168" x2="1200" y2="168"/><line x1="0" y1="210" x2="1200" y2="210"/><line x1="0" y1="252" x2="1200" y2="252"/><line x1="0" y1="294" x2="1200" y2="294"/><line x1="0" y1="336" x2="1200" y2="336"/><line x1="0" y1="378" x2="1200" y2="378"/><line x1="0" y1="420" x2="1200" y2="420"/><line x1="0" y1="462" x2="1200" y2="462"/><line x1="0" y1="504" x2="1200" y2="504"/><line x1="0" y1="546" x2="1200" y2="546"/><line x1="0" y1="588" x2="1200" y2="588"/>
  </g>
  <g transform="translate(96,206)">
    <rect width="92" height="92" rx="20" fill="#2563eb"/>
    <path d="M46 28c-6-4-12.5-4.8-19.5-3.6-.9.15-1.5.9-1.5 1.8V62c0 1.05.96 1.8 1.98 1.65C34 62.6 41 63.2 46 67M46 28c6-4 12.5-4.8 19.5-3.6.9.15 1.5.9 1.5 1.8V62c0 1.05-.96 1.8-1.98 1.65C58 62.6 51 63.2 46 67M46 28v39" fill="none" stroke="#fff" stroke-width="4.5" stroke-linecap="round" stroke-linejoin="round"/>
  </g>
  <text x="210" y="252" font-family="Inter, Arial, sans-serif" font-size="64" font-weight="800" fill="#ffffff">AllesWiki</text>
  <text x="96" y="372" font-family="Inter, Arial, sans-serif" font-size="38" font-weight="700" fill="#ffffff">Rechner, Wissen &amp; How-to für jeden Alltag</text>
  <text x="96" y="430" font-family="Inter, Arial, sans-serif" font-size="29" fill="#a1a1aa">Finanzen · Gesundheit · Auto · Wohnen · Recht · Familie · …</text>
  <rect x="96" y="470" width="220" height="6" rx="3" fill="#2563eb"/>
</svg>
